<svg height="511pt" viewBox="-34 0 511 511.7752" width="511pt" xmlns="http://www.w3.org/2000/svg"><g fill="#ffc900"><path d="m222.308594 8.308594 12.261718 17.492187 21.871094 5.324219-14.292968 16.136719 1.253906 20.78125-21.09375-7.519531-21.09375 7.519531 1.253906-20.78125-14.292969-16.136719 21.871094-5.324219zm0 0"/><path d="m401.511719 144.84375 12.261719 17.492188 21.871093 5.324218-14.292969 16.136719 1.253907 20.777344-21.09375-7.515625-21.097657 7.515625 1.253907-20.777344-14.292969-16.136719 21.871094-5.324218zm0 0"/><path d="m43.109375 144.84375-12.261719 17.492188-21.871094 5.324218 14.292969 16.136719-1.253906 20.777344 21.09375-7.515625 21.09375 7.515625-1.253906-20.777344 14.292969-16.136719-21.871094-5.324218zm0 0"/></g><path d="m154.042969 434.378906v.597656c.003906 2.851563-.167969 5.699219-.511719 8.53125-2.074219 16.527344-10.15625 31.710938-22.699219 42.667969-2.964843 2.703125-6.195312 5.105469-9.640625 7.167969-1.792968 1.023438-3.5 1.960938-5.378906 2.902344-1.800781.898437-3.652344 1.695312-5.546875 2.386718-1.886719.78125-3.824219 1.4375-5.800781 1.964844-1.988282.613282-4.011719 1.097656-6.058594 1.449219-2.058594.414063-4.136719.699219-6.230469.855469-4.253906.453125-8.542969.453125-12.800781 0-2.089844-.15625-4.171875-.441406-6.226562-.855469-2.050782-.351563-4.074219-.835937-6.058594-1.449219-1.976563-.527344-3.914063-1.183594-5.804688-1.964844-1.890625-.691406-3.742187-1.488281-5.546875-2.386718-1.875-.941406-3.582031-1.878906-5.375-2.902344-3.445312-2.0625-6.675781-4.464844-9.644531-7.167969-12.542969-10.957031-20.621094-26.140625-22.695312-42.667969-.683594-5.667968-.683594-11.398437 0-17.066406 2.074218-16.523437 10.152343-31.710937 22.695312-42.667968 2.96875-2.703126 6.199219-5.105469 9.644531-7.167969 1.792969-1.023438 3.5-1.960938 5.375-2.898438 1.804688-.898437 3.65625-1.699219 5.546875-2.390625 1.890625-.78125 3.828125-1.4375 5.804688-1.960937 1.984375-.617188 4.007812-1.101563 6.058594-1.453125 2.054687-.414063 4.136718-.699219 6.226562-.851563 4.257812-.457031 8.546875-.457031 12.800781 0 2.09375.152344 4.171875.4375 6.230469.851563 2.046875.351562 4.070312.835937 6.058594 1.453125 1.976562.523437 3.914062 1.179687 5.800781 1.960937 1.894531.691406 3.746094 1.492188 5.546875 2.390625 1.878906.9375 3.585938 1.875 5.378906 2.898438 3.445313 2.0625 6.675782 4.464843 9.640625 7.167969 12.542969 10.957031 20.625 26.144531 22.699219 42.667968.339844 2.632813.511719 5.28125.511719 7.9375zm0 0" fill="#ae44bd"/><path d="m130.824219 486.175781c0-9.425781-20.167969-17.066406-45.046875-17.066406s-45.046875 7.640625-45.046875 17.066406 20.167969 17.066407 45.046875 17.066407 45.046875-7.640626 45.046875-17.066407zm0 0" fill="#d7dee2"/><path d="m130.824219 383.773438c0-9.425782-20.167969-17.066407-45.046875-17.066407s-45.046875 7.640625-45.046875 17.066407c0 9.425781 20.167969 17.070312 45.046875 17.070312s45.046875-7.644531 45.046875-17.070312zm0 0" fill="#d7dee2"/><path d="m427.109375 434.976562c.003906 2.851563-.167969 5.699219-.511719 8.53125-2.074218 16.527344-10.15625 31.710938-22.699218 42.667969-2.964844 2.703125-6.195313 5.105469-9.640626 7.167969-1.792968 1.023438-3.5 1.960938-5.378906 2.902344-1.800781.898437-3.652344 1.695312-5.546875 2.386718-1.886719.78125-3.824219 1.4375-5.800781 1.964844-1.984375.613282-4.011719 1.097656-6.058594 1.449219-2.054687.414063-4.136718.699219-6.230468.855469-4.253907.453125-8.542969.453125-12.800782 0-2.089844-.15625-4.171875-.441406-6.226562-.855469h-.171875c-1.992188-.351563-3.960938-.835937-5.886719-1.449219-1.976562-.527344-3.914062-1.183594-5.804688-1.964844-1.890624-.691406-3.742187-1.488281-5.546874-2.386718-1.875-.941406-3.582032-1.878906-5.375-2.902344-3.445313-2.0625-6.675782-4.464844-9.640626-7.167969-12.546874-10.957031-20.625-26.140625-22.699218-42.667969-.683594-5.667968-.683594-11.398437 0-17.066406 2.074218-16.523437 10.152344-31.710937 22.699218-42.667968 1.449219-1.277344 2.984376-2.558594 4.605469-3.753907 1.621094-1.195312 3.328125-2.304687 5.035157-3.414062 1.707031-1.109375 3.5-1.960938 5.375-2.898438 1.804687-.898437 3.65625-1.699219 5.546874-2.390625 1.890626-.78125 3.828126-1.4375 5.804688-1.960937 1.878906-.585938 3.785156-1.070313 5.714844-1.453125h.34375c2.054687-.414063 4.136718-.699219 6.226562-.851563 4.257813-.457031 8.546875-.457031 12.800782 0 2.09375.152344 4.175781.4375 6.230468.851563 2.046875.351562 4.074219.835937 6.058594 1.453125 1.976562.523437 3.914062 1.179687 5.800781 1.960937 1.894531.691406 3.746094 1.492188 5.546875 2.390625 1.878906.9375 3.585938 1.875 5.378906 2.898438 3.445313 2.0625 6.675782 4.464843 9.640626 7.167969 12.542968 10.957031 20.625 26.144531 22.699218 42.667968.34375 2.832032.515625 5.679688.511719 8.535156zm0 0" fill="#f88f00"/><path d="m401.511719 434.976562c0 2.851563-.171875 5.699219-.515625 8.53125-2.074219 16.527344-10.152344 31.710938-22.695313 42.667969-2.96875 2.703125-6.199219 5.105469-9.644531 7.167969-1.792969 1.023438-3.5 1.960938-5.375 2.902344-1.804688.898437-3.65625 1.695312-5.546875 2.386718-1.890625.78125-3.828125 1.4375-5.804687 1.964844-1.925782.613282-3.894532 1.097656-5.886719 1.449219-1.992188-.351563-3.960938-.835937-5.886719-1.449219-1.976562-.527344-3.914062-1.183594-5.804688-1.964844-1.890624-.691406-3.742187-1.488281-5.546874-2.386718-1.875-.941406-3.582032-1.878906-5.375-2.902344-3.445313-2.0625-6.675782-4.464844-9.640626-7.167969-12.546874-10.957031-20.625-26.140625-22.699218-42.667969-.683594-5.667968-.683594-11.398437 0-17.066406 2.074218-16.523437 10.152344-31.710937 22.699218-42.667968 1.449219-1.277344 2.984376-2.558594 4.605469-3.753907 1.621094-1.195312 3.328125-2.304687 5.035157-3.414062 1.707031-1.109375 3.5-1.960938 5.375-2.898438 1.804687-.898437 3.65625-1.699219 5.546874-2.390625 1.890626-.78125 3.828126-1.4375 5.804688-1.960937 1.878906-.585938 3.785156-1.070313 5.714844-1.453125h.171875c1.992187.351562 3.960937.839844 5.886719 1.453125 1.976562.523437 3.914062 1.179687 5.804687 1.960937 1.890625.691406 3.742187 1.492188 5.546875 2.390625 1.875.9375 3.582031 1.875 5.375 2.898438 3.445312 2.0625 6.675781 4.464843 9.644531 7.167969 12.542969 10.957031 20.621094 26.144531 22.695313 42.667968.34375 2.832032.515625 5.679688.515625 8.535156zm0 0" fill="#ffc900"/><path d="m403.890625 486.175781c0-9.425781-20.167969-17.066406-45.046875-17.066406s-45.046875 7.640625-45.046875 17.066406 20.167969 17.066407 45.046875 17.066407 45.046875-7.640626 45.046875-17.066407zm0 0" fill="#d7dee2"/><path d="m403.890625 383.773438c0-9.425782-20.167969-17.066407-45.046875-17.066407s-45.046875 7.640625-45.046875 17.066407c0 9.425781 20.167969 17.070312 45.046875 17.070312s45.046875-7.644531 45.046875-17.070312zm0 0" fill="#d7dee2"/><path d="m358.84375 298.441406c0 2.851563-.167969 5.703125-.511719 8.535156-2.078125 16.523438-10.15625 31.710938-22.699219 42.664063-2.96875 2.707031-6.199218 5.109375-9.644531 7.167969-1.789062 1.023437-3.496093 1.964844-5.375 2.902344-1.800781.898437-3.65625 1.695312-5.546875 2.390624-1.859375.78125-3.769531 1.4375-5.714844 1.960938h-.085937c-1.925781.625-3.894531 1.109375-5.890625 1.453125h-.167969c-2.058593.414063-4.136719.699219-6.230469.851563-1.445312.171874-2.898437.253906-4.351562.257812-.679688.070312-1.363281.097656-2.046875.082031-.800781.015625-1.597656-.011719-2.390625-.082031-1.339844 0-2.679688-.085938-4.011719-.257812h-.339843c-2.046876-.171876-4.011719-.511719-5.890626-.851563h-.339843c-1.929688-.382813-3.839844-.867187-5.71875-1.453125-1.972657-.523438-3.910157-1.179688-5.800781-1.960938-1.890626-.695312-3.742188-1.492187-5.546876-2.390624-1.878906-.9375-3.582031-1.878907-5.375-2.902344-1.792968-1.023438-3.414062-2.21875-5.035156-3.410156-1.621094-1.195313-3.15625-2.476563-4.609375-3.757813-12.542969-10.953125-20.621093-26.140625-22.699219-42.664063-.679687-5.667968-.679687-11.398437 0-17.066406 2.078126-16.527344 10.15625-31.710937 22.699219-42.667968 1.453125-1.28125 2.988281-2.558594 4.609375-3.753907 1.621094-1.195312 3.328125-2.304687 5.035156-3.414062 1.707032-1.109375 3.496094-1.964844 5.375-2.902344 1.804688-.898437 3.65625-1.695313 5.546876-2.390625 1.859374-.777344 3.769531-1.433594 5.71875-1.960938h.082031c1.929687-.613281 3.898437-1.097656 5.890625-1.449218h.167968c2.058594-.417969 4.140626-.703125 6.230469-.855469 4.253907-.453125 8.546875-.453125 12.800781 0 2.09375.152344 4.171876.4375 6.230469.855469 2.046875.351562 4.070313.835937 6.058594 1.449218 1.972656.527344 3.914063 1.179688 5.800781 1.960938 1.890625.695312 3.746094 1.492188 5.546875 2.390625 1.878907.9375 3.585938 1.878906 5.375 2.902344 3.445313 2.0625 6.675781 4.460937 9.644531 7.167969 12.542969 10.957031 20.621094 26.140624 22.699219 42.667968.34375 2.828125.511719 5.679688.511719 8.53125zm0 0" fill="#354aa3"/><path d="m333.242188 298.441406c.003906 2.851563-.167969 5.703125-.511719 8.535156-2.074219 16.523438-10.152344 31.710938-22.699219 42.664063-2.964844 2.707031-6.195312 5.109375-9.640625 7.167969-1.792969 1.023437-3.5 1.964844-5.375 2.902344-1.804687.898437-3.65625 1.695312-5.546875 2.390624-1.863281.78125-3.773438 1.4375-5.71875 1.960938h-.085938c-1.867187.625-3.777343 1.109375-5.71875 1.453125h-.339843c-1.929688-.382813-3.839844-.867187-5.71875-1.453125-1.972657-.523438-3.910157-1.179688-5.800781-1.960938-1.890626-.695312-3.742188-1.492187-5.546876-2.390624-1.878906-.9375-3.582031-1.878907-5.375-2.902344-1.792968-1.023438-3.414062-2.21875-5.035156-3.410156-1.621094-1.195313-3.15625-2.476563-4.609375-3.757813-12.542969-10.953125-20.621093-26.140625-22.699219-42.664063-.679687-5.667968-.679687-11.398437 0-17.066406 2.078126-16.527344 10.15625-31.710937 22.699219-42.667968 1.453125-1.28125 2.988281-2.558594 4.609375-3.753907 1.621094-1.195312 3.328125-2.304687 5.035156-3.414062 1.707032-1.109375 3.496094-1.964844 5.375-2.902344 1.804688-.898437 3.65625-1.695313 5.546876-2.390625 1.859374-.777344 3.769531-1.433594 5.71875-1.960938h.082031c1.929687-.613281 3.898437-1.097656 5.890625-1.449218 1.992187.351562 3.957031.835937 5.886718 1.449218 1.976563.527344 3.914063 1.179688 5.804688 1.960938 1.890625.695312 3.742188 1.492188 5.546875 2.390625 1.875.9375 3.582031 1.878906 5.375 2.902344 3.445313 2.0625 6.675781 4.460937 9.640625 7.167969 12.546875 10.957031 20.625 26.140624 22.699219 42.667968.34375 2.828125.515625 5.679688.511719 8.53125zm0 0" fill="#5068c1"/><path d="m335.625 349.640625c0-9.425781-20.167969-17.066406-45.046875-17.066406s-45.050781 7.640625-45.050781 17.066406 20.171875 17.066406 45.050781 17.066406 45.046875-7.640625 45.046875-17.066406zm0 0" fill="#d7dee2"/><path d="m335.625 247.242188c0-9.425782-20.167969-17.066407-45.046875-17.066407s-45.050781 7.640625-45.050781 17.066407c0 9.425781 20.171875 17.066406 45.050781 17.066406s45.046875-7.640625 45.046875-17.066406zm0 0" fill="#d7dee2"/><path d="m288.1875 161.910156c0 2.851563-.167969 5.699219-.511719 8.53125-2.078125 16.527344-10.15625 31.710938-22.699219 42.667969-2.96875 2.703125-6.195312 5.105469-9.644531 7.167969-1.789062 1.023437-3.496093 1.960937-5.375 2.902344-1.800781.898437-3.652343 1.695312-5.546875 2.386718-1.886718.78125-3.828125 1.4375-5.800781 1.964844-1.988281.613281-4.011719 1.097656-6.058594 1.449219-2.058593.414062-4.136719.699219-6.230469.851562-4.253906.457031-8.546874.457031-12.800781 0-1.746093-.136719-3.480469-.363281-5.203125-.679687-.347656-.015625-.691406-.074219-1.023437-.171875h-.171875c-.9375-.171875-1.964844-.425781-2.902344-.683594-1.015625-.175781-2.011719-.429687-2.984375-.765625-1.976563-.527344-3.914063-1.183594-5.804687-1.964844-1.878907-.683594-3.753907-1.535156-5.546876-2.386718-1.792968-.855469-3.667968-1.964844-5.375-2.902344-1.707031-1.109375-3.328124-2.21875-4.949218-3.414063-1.621094-1.195312-3.15625-2.390625-4.695313-3.753906-12.542969-10.957031-20.621093-26.140625-22.699219-42.667969-.679687-5.667968-.679687-11.398437 0-17.066406 2.078126-16.523438 10.15625-31.710938 22.699219-42.667969 2.96875-2.703125 6.199219-5.105469 9.644531-7.167969 1.707032-.9375 3.496094-1.960937 5.375-2.898437 1.878907-.941406 3.667969-1.707031 5.546876-2.390625 1.890624-.78125 3.828124-1.4375 5.804687-1.960938 1.988281-.605468 4.011719-1.089843 6.058594-1.453124.332031-.097657.675781-.15625 1.023437-.171876 1.722656-.316406 3.457032-.542968 5.203125-.679687 1.589844-.171875 3.183594-.257813 4.78125-.257813 1.078125-.113281 2.164063-.113281 3.242188 0 1.59375 0 3.191406.085938 4.777343.257813 2.09375.152344 4.171876.4375 6.230469.851563 2.046875.351562 4.070313.835937 6.058594 1.453124 1.972656.523438 3.914063 1.179688 5.800781 1.960938 1.894532.691406 3.746094 1.492188 5.546875 2.390625 1.878907.9375 3.585938 1.875 5.375 2.898437 3.449219 2.0625 6.675781 4.464844 9.644531 7.167969 12.542969 10.957031 20.621094 26.144531 22.699219 42.667969.34375 2.832031.511719 5.679688.511719 8.535156zm0 0" fill="#d13d34"/><path d="m264.976562 161.910156c.003907 2.851563-.167968 5.699219-.511718 8.53125-2.078125 16.527344-10.15625 31.710938-22.699219 42.667969-2.964844 2.703125-6.195313 5.105469-9.640625 7.167969-1.792969 1.023437-3.5 1.960937-5.378906 2.902344-1.800782.898437-3.652344 1.695312-5.546875 2.386718-1.886719.78125-3.824219 1.4375-5.800781 1.964844-1.988282.613281-4.011719 1.097656-6.058594 1.449219-.664063.226562-1.386719.226562-2.046875 0h-.171875c-.9375-.171875-1.964844-.425781-2.902344-.683594-1.015625-.175781-2.011719-.429687-2.984375-.765625-1.976563-.527344-3.914063-1.183594-5.804687-1.964844-1.878907-.683594-3.753907-1.535156-5.546876-2.386718-1.792968-.855469-3.667968-1.964844-5.375-2.902344-1.707031-1.109375-3.328124-2.21875-4.949218-3.414063-1.621094-1.195312-3.15625-2.390625-4.695313-3.753906-12.542969-10.957031-20.621093-26.140625-22.699219-42.667969-.679687-5.667968-.679687-11.398437 0-17.066406 2.078126-16.523438 10.15625-31.710938 22.699219-42.667969 2.96875-2.703125 6.199219-5.105469 9.644531-7.167969 1.707032-.9375 3.496094-1.960937 5.375-2.898437 1.878907-.941406 3.667969-1.707031 5.546876-2.390625 1.890624-.78125 3.828124-1.4375 5.804687-1.960938 1.988281-.605468 4.011719-1.089843 6.058594-1.453124.660156-.226563 1.382812-.226563 2.046875 0 2.046875.351562 4.070312.835937 6.058594 1.453124 1.976562.523438 3.914062 1.179688 5.800781 1.960938 1.894531.691406 3.746093 1.492188 5.546875 2.390625 1.878906.9375 3.585937 1.875 5.378906 2.898437 3.445312 2.0625 6.675781 4.464844 9.640625 7.167969 12.542969 10.957031 20.621094 26.144531 22.699219 42.667969.34375 2.832031.515625 5.679688.511718 8.535156zm0 0" fill="#f85b44"/><path d="m264.976562 213.109375c0-9.425781-20.167968-17.066406-45.046874-17.066406-24.878907 0-45.046876 7.640625-45.046876 17.066406s20.167969 17.066406 45.046876 17.066406c24.878906 0 45.046874-7.640625 45.046874-17.066406zm0 0" fill="#d7dee2"/><path d="m264.976562 110.707031c0-9.425781-20.167968-17.066406-45.046874-17.066406-24.878907 0-45.046876 7.640625-45.046876 17.066406s20.167969 17.066407 45.046876 17.066407c24.878906 0 45.046874-7.640626 45.046874-17.066407zm0 0" fill="#d7dee2"/><path d="m290.578125 434.976562c.011719 2.136719-.101563 4.273438-.34375 6.398438-.015625.6875-.070313 1.371094-.167969 2.046875-.171875 1.453125-.429687 2.816406-.683594 4.183594-.351562 2.046875-.835937 4.070312-1.453124 6.058593-.523438 1.972657-1.179688 3.914063-1.960938 5.800782-.691406 1.894531-1.492188 3.746094-2.390625 5.546875-.9375 1.878906-1.875 3.585937-2.898437 5.375-.769532 1.195312-1.625 2.390625-2.476563 3.585937-1.359375 2.171875-2.929687 4.199219-4.691406 6.058594-10.957031 12.542969-26.144531 20.621094-42.667969 22.699219-5.667969.683593-11.398438.683593-17.066406 0-16.527344-2.078125-31.710938-10.15625-42.667969-22.699219-2.703125-2.96875-5.105469-6.195312-7.167969-9.644531-1.023437-1.789063-1.960937-3.496094-2.902344-5.375-.898437-1.800781-1.695312-3.652344-2.386718-5.546875-.78125-1.886719-1.4375-3.828125-1.964844-5.800782-.613281-1.988281-1.097656-4.011718-1.449219-6.058593-.257812-1.367188-.511719-2.730469-.683593-4.183594-.070313-.480469-.097657-.964844-.085938-1.449219-.074219-.1875-.105469-.394531-.085938-.597656-.238281-2.125-.355468-4.261719-.339843-6.398438v-.597656c-.015625-1.941406.097656-3.878906.339843-5.804687.015626-.683594.074219-1.367188.171876-2.046875.171874-1.449219.425781-2.816406.683593-4.179688.351563-2.050781.835938-4.074218 1.449219-6.058594.527344-1.976562 1.183594-3.914062 1.964844-5.804687.691406-1.890625 1.488281-3.742187 2.386718-5.546875.941407-1.878906 1.878907-3.582031 2.902344-5.375 2.0625-3.445312 4.464844-6.675781 7.167969-9.644531 10.957031-12.542969 26.140625-20.621094 42.667969-22.699219 5.667968-.679688 11.398437-.679688 17.066406 0 16.523438 2.078125 31.710938 10.15625 42.667969 22.699219 2.703125 2.96875 5.105469 6.199219 7.167969 9.644531 1.023437 1.792969 1.960937 3.496094 2.898437 5.375.898437 1.804688 1.699219 3.65625 2.390625 5.546875.78125 1.890625 1.4375 3.828125 1.960938 5.804687.617187 1.984376 1.101562 4.007813 1.453124 6.058594.253907 1.363282.511719 2.730469.683594 4.179688.097656.679687.152344 1.363281.167969 2.046875.242187 2.125.355469 4.261719.34375 6.402343zm0 0" fill="#00b7f6"/><path d="m290.578125 434.976562c0-24.878906-7.644531-45.046874-17.066406-45.046874-9.425781 0-17.070313 20.167968-17.070313 45.046874 0 24.878907 7.644532 45.046876 17.070313 45.046876 9.421875 0 17.066406-20.167969 17.066406-45.046876zm0 0" fill="#d7dee2"/><path d="m188.175781 434.976562c0-24.878906-7.640625-45.046874-17.066406-45.046874s-17.066406 20.167968-17.066406 45.046874c0 24.878907 7.640625 45.046876 17.066406 45.046876s17.066406-20.167969 17.066406-45.046876zm0 0" fill="#d7dee2"/><path d="m222.308594 298.441406c.015625 2.140625-.097656 4.277344-.339844 6.402344-.015625.683594-.070312 1.367188-.171875 2.046875-.167969 1.449219-.425781 2.816406-.683594 4.179687-.351562 2.050782-.835937 4.074219-1.449219 6.058594-.523437 1.976563-1.179687 3.914063-1.960937 5.804688-.695313 1.890625-1.492187 3.742187-2.390625 5.546875-.9375 1.875-1.878906 3.582031-2.902344 5.375-.765625 1.195312-1.621094 2.390625-2.472656 3.582031-1.359375 2.171875-2.933594 4.203125-4.695312 6.058594-10.957032 12.546875-26.140626 20.625-42.664063 22.699218-5.671875.683594-11.398437.683594-17.066406 0-16.527344-2.074218-31.710938-10.152343-42.667969-22.699218-2.707031-2.964844-5.105469-6.195313-7.167969-9.640625-1.023437-1.792969-1.964843-3.5-2.902343-5.375-.898438-1.804688-1.695313-3.65625-2.390626-5.546875-.78125-1.890625-1.433593-3.828125-1.960937-5.804688-.613281-1.984375-1.097656-4.007812-1.449219-6.058594-.417968-2.054687-.703125-4.136718-.855468-6.226562-.453126-4.257812-.453126-8.546875 0-12.800781.152343-2.09375.4375-4.175781.855468-6.230469.351563-2.046875.835938-4.074219 1.449219-6.058594.527344-1.976562 1.179687-3.914062 1.960937-5.800781.695313-1.894531 1.492188-3.746094 2.390626-5.546875.9375-1.878906 1.878906-3.585938 2.902343-5.378906 2.0625-3.445313 4.460938-6.675782 7.167969-9.640625 10.957031-12.546875 26.140625-20.625 42.667969-22.699219 5.667969-.683594 11.394531-.683594 17.066406 0 16.523437 2.074219 31.707031 10.152344 42.664063 22.699219 2.707031 2.964843 5.109374 6.195312 7.167968 9.640625 1.023438 1.792968 1.964844 3.5 2.902344 5.378906.898438 1.800781 1.695312 3.652344 2.390625 5.546875.78125 1.886719 1.4375 3.824219 1.960937 5.800781.613282 1.984375 1.097657 4.011719 1.449219 6.058594.257813 1.367188.515625 2.730469.683594 4.179688.101563.679687.15625 1.363281.171875 2.050781.242188 2.125.355469 4.261719.339844 6.398437zm0 0" fill="#5ab862"/><path d="m222.308594 298.441406c0-24.878906-7.640625-45.046875-17.066406-45.046875-9.425782 0-17.066407 20.167969-17.066407 45.046875s7.640625 45.046875 17.066407 45.046875c9.425781 0 17.066406-20.167969 17.066406-45.046875zm0 0" fill="#d7dee2"/><path d="m119.910156 298.441406c0-24.878906-7.640625-45.046875-17.066406-45.046875s-17.066406 20.167969-17.066406 45.046875 7.640625 45.046875 17.066406 45.046875 17.066406-20.167969 17.066406-45.046875zm0 0" fill="#d7dee2"/><path d="m264.582031 28.574219c-.890625-2.855469-3.21875-5.035157-6.125-5.742188l-18.773437-4.566406-10.386719-14.855469c-1.679687-2.152344-4.257813-3.410156-6.988281-3.410156-2.730469 0-5.308594 1.257812-6.988282 3.410156l-10.410156 14.855469-18.773437 4.566406c-2.910157.707031-5.234375 2.882813-6.132813 5.738281-.894531 2.855469-.230468 5.972657 1.753906 8.214844l11.949219 13.492188-1.007812 17.253906c-.167969 2.855469 1.109375 5.605469 3.402343 7.320312 2.289063 1.71875 5.285157 2.171876 7.980469 1.210938l18.226563-6.484375 18.226562 6.492187c2.699219.960938 5.695313.507813 7.984375-1.207031 2.289063-1.71875 3.566407-4.46875 3.402344-7.324219l-1.035156-17.253906 11.949219-13.492187c1.984374-2.242188 2.648437-5.363281 1.746093-8.21875zm-28.824219 13.015625c-1.492187 1.695312-2.253906 3.914062-2.125 6.167968l.480469 7.902344-8.9375-3.183594c-1.851562-.671874-3.878906-.671874-5.734375 0l-8.933594 3.183594.476563-7.902344c.132813-2.253906-.632813-4.472656-2.125-6.167968l-4.90625-5.53125 8.117187-1.980469c2.019532-.492187 3.785157-1.707031 4.972657-3.414063l5.265625-7.492187 5.265625 7.527344c1.1875 1.707031 2.957031 2.921875 4.976562 3.414062l8.113281 1.980469zm0 0"/><path d="m437.65625 159.347656-18.773438-4.566406-10.410156-14.855469c-1.679687-2.152343-4.257812-3.410156-6.988281-3.410156s-5.308594 1.257813-6.988281 3.410156l-10.410156 14.855469-18.773438 4.566406c-2.910156.707032-5.238281 2.882813-6.132812 5.738282-.898438 2.855468-.230469 5.972656 1.753906 8.214843l11.945312 13.492188-.980468 17.269531c-.164063 2.859375 1.113281 5.605469 3.402343 7.324219 2.289063 1.714843 5.285157 2.171875 7.980469 1.210937l18.230469-6.488281 18.226562 6.496094c2.695313.960937 5.691407.503906 7.980469-1.210938 2.289062-1.714843 3.566406-4.464843 3.402344-7.324219l-1.03125-17.253906 11.945312-13.492187c1.984375-2.238281 2.648438-5.355469 1.753906-8.210938-.894531-2.855469-3.222656-5.035156-6.132812-5.738281zm-22.699219 18.773438c-1.488281 1.699218-2.253906 3.914062-2.125 6.171875l.480469 7.898437-8.933594-3.179687c-1.855468-.671875-3.882812-.671875-5.734375 0l-8.9375 3.179687.480469-7.898437c.128906-2.257813-.636719-4.472657-2.125-6.171875l-4.90625-5.527344 8.113281-1.980469c2.019531-.496093 3.789063-1.707031 4.976563-3.414062l5.265625-7.492188 5.261719 7.527344c1.1875 1.703125 2.957031 2.917969 4.976562 3.414063l8.113281 1.976562zm0 0"/><path d="m13.5 204.0625c-.167969 2.859375 1.109375 5.605469 3.398438 7.324219 2.289062 1.714843 5.289062 2.171875 7.984374 1.210937l18.226563-6.488281 18.226563 6.496094c2.695312.960937 5.695312.503906 7.984374-1.210938 2.289063-1.714843 3.566407-4.464843 3.398438-7.324219l-1.03125-17.253906 11.945312-13.492187c1.988282-2.238281 2.652344-5.355469 1.757813-8.210938-.898437-2.855469-3.222656-5.035156-6.132813-5.738281l-18.773437-4.566406-10.410156-14.855469c-1.679688-2.152344-4.257813-3.410156-6.988281-3.410156-2.730469 0-5.308594 1.257812-6.992188 3.410156l-10.410156 14.855469-18.773438 4.566406c-2.90625.703125-5.234375 2.882812-6.132812 5.738281-.894532 2.855469-.226563 5.972657 1.757812 8.210938l11.945313 13.492187zm19.371094-33.441406c2.015625-.492188 3.785156-1.707032 4.972656-3.414063l5.265625-7.5 5.265625 7.527344c1.1875 1.703125 2.957031 2.917969 4.976562 3.414063l8.113282 1.976562-4.90625 5.53125c-1.492188 1.699219-2.253906 3.914062-2.125 6.167969l.476562 7.902343-8.933594-3.183593c-1.851562-.667969-3.882812-.667969-5.734374 0l-8.933594 3.183593.476562-7.902343c.128906-2.253907-.632812-4.46875-2.125-6.167969l-4.90625-5.53125zm0 0"/><path d="m409.660156 377.546875c-.050781-.050781-.070312-.121094-.128906-.171875s-.351562-.273438-.519531-.417969c-1.265625-1.09375-2.5625-2.125-3.890625-3.132812-.574219-.433594-1.144532-.851563-1.707032-1.289063-1.316406-.9375-2.671874-1.832031-4.046874-2.6875-.648438-.398437-1.289063-.800781-1.945313-1.183594-1.363281-.804687-2.757813-1.558593-4.179687-2.261718-.710938-.359375-1.425782-.710938-2.152344-1.042969-1.398438-.648437-2.808594-1.261719-4.265625-1.832031-.855469-.316406-1.636719-.609375-2.464844-.90625-1.382813-.488282-2.765625-.957032-4.175781-1.367188-.988282-.289062-1.988282-.519531-2.976563-.765625-1.296875-.324219-2.558593-.648437-3.898437-.90625-1.339844-.253906-2.628906-.417969-3.945313-.597656-1.058593-.144531-2.097656-.332031-3.164062-.433594-2.433594-.238281-4.890625-.375-7.355469-.375s-4.925781.136719-7.355469.375c-1.066406.101563-2.109375.289063-3.167969.433594-1.3125.179687-2.636718.351563-3.941406.597656-1.304687.25-2.558594.582031-3.898437.90625-.992188.246094-1.988281.476563-2.980469.765625-1.40625.410156-2.789062.855469-4.171875 1.367188-.496094.179687-1.007813.308594-1.492187.496094 1.117187-.71875 2.210937-1.46875 3.292968-2.238282.582032-.417968 1.152344-.851562 1.707032-1.289062 1.332031-1.003906 2.628906-2.039063 3.890624-3.128906.171876-.144532.359376-.273438.519532-.417969.164062-.144531.078125-.121094.128906-.171875 16.515625-14.515625 25.984375-35.441406 25.984375-57.429688 0-21.988281-9.46875-42.914062-25.984375-57.429687-.050781-.050781-.066406-.117188-.128906-.167969-.058594-.054688-.347656-.273438-.519532-.421875-1.261718-1.089844-2.558593-2.121094-3.890624-3.128906-.570313-.4375-1.144532-.855469-1.707032-1.289063-1.3125-.9375-2.671875-1.835937-4.042968-2.6875-.648438-.402344-1.289063-.804687-1.949219-1.1875-1.363281-.800781-2.757813-1.554687-4.179688-2.261718-.707031-.359376-1.425781-.707032-2.148437-1.039063-1.402344-.648437-2.808594-1.265625-4.269532-1.835937-.851562-.316407-1.636718-.605469-2.464843-.90625-1.382813-.484376-2.765625-.953126-4.171875-1.363282-.992188-.289062-1.988282-.519531-2.980469-.769531-1.296875-.324219-2.558594-.648437-3.898437-.902344-1.339844-.257812-2.628907-.417969-3.941407-.597656-1.058593-.144531-2.101562-.332031-3.167969-.4375-2.414062-.238281-4.871093-.375-7.335937-.375-2.46875 0-4.925781.136719-7.355469.375-1.070312.105469-2.109375.292969-3.167968.4375-1.3125.179687-2.636719.347656-3.941407.597656-1.304687.246094-2.5625.578125-3.902343.902344-.988282.25-1.988282.480469-2.976563.769531-1.40625.410156-2.789063.851563-4.171875 1.363282-.855469.300781-1.65625.589843-2.476562.914062-1.433594.5625-2.839844 1.179688-4.265626 1.828125-.726562.332031-1.449218.679687-2.167968 1.039063-1.414063.71875-2.808594 1.472656-4.171875 2.261718-.65625.382813-1.296875.785156-1.945313 1.1875-1.375.851563-2.730468 1.75-4.046875 2.6875-.578125.417969-1.152343.851563-1.707031 1.289063-1.328125 1.007812-2.625 2.039062-3.890625 3.128906-.167969.148437-.355469.273437-.519531.421875-.160156.144531-.078125.117188-.128906.167969-7.148438 6.339843-13.058594 13.949219-17.433594 22.445312-.621094-1.195312-1.277344-2.375-1.953125-3.535156-.382813-.65625-.777344-1.296875-1.1875-1.945313-.851563-1.375-1.707031-2.730468-2.6875-4.042968-.417969-.582032-.851563-1.152344-1.289063-1.707032-1.003906-1.332031-2.039062-2.628906-3.128906-3.890624-.144531-.171876-.273438-.359376-.417969-.523438-.144531-.160156-.113281-.066406-.15625-.117188-4.054687-4.589843-8.636719-8.683593-13.652343-12.195312l.75.1875c.984374.289062 1.980468.519531 2.972656.769531 1.296875.3125 2.558594.648438 3.90625.902344 1.347656.257813 2.613281.417969 3.925781.597656 1.058594.144531 2.109375.332031 3.183594.4375 2.429687.238281 4.886719.375 7.355469.375 2.464843 0 4.914062-.136719 7.355468-.375 1.074219-.105469 2.117188-.292969 3.183594-.4375 1.304688-.179687 2.617188-.347656 3.914062-.597656 1.296876-.246094 2.613282-.589844 3.910157-.902344 1-.25 1.988281-.480469 2.96875-.769531 1.417969-.410156 2.800781-.851562 4.171875-1.363281.855468-.300781 1.707031-.589844 2.484375-.914063 1.433593-.5625 2.84375-1.179687 4.265625-1.828125.726562-.332031 1.445312-.679687 2.160156-1.039062 1.425781-.71875 2.816406-1.46875 4.179688-2.269531.660156-.375 1.300781-.769532 1.9375-1.171876 1.375-.851562 2.730468-1.703124 4.054687-2.695312.582031-.417969 1.152344-.851562 1.707031-1.289062 1.324219-1.007813 2.628906-2.039063 3.890625-3.128907l.519531-.421875c.050782-.050781.078126-.117187.128907-.167968 16.515625-14.515626 25.984375-35.441407 25.984375-57.429688s-9.46875-42.914062-25.984375-57.429688c-.050781-.050781-.078125-.121093-.128907-.171874l-.535156-.484376c-1.265625-1.09375-2.5625-2.125-3.890625-3.132812-.574219-.433594-1.144531-.851562-1.707031-1.289062-1.328125-.9375-2.679688-1.835938-4.054688-2.6875-.640624-.402344-1.289062-.800782-1.9375-1.1875-1.375-.800782-2.769531-1.554688-4.179687-2.261719-.710937-.355469-1.433594-.707031-2.152344-1.039063-1.398437-.648437-2.808593-1.261718-4.265625-1.835937-.855468-.316407-1.640625-.605469-2.464844-.902344-1.382812-.488281-2.765624-.957031-4.183593-1.367187-.980469-.289063-1.980469-.519532-2.976563-.765626-1.289062-.324218-2.5625-.648437-3.890625-.90625-1.332031-.253906-2.628906-.417968-3.953125-.597656-1.050781-.144531-2.089844-.332031-3.15625-.433594-2.414062-.230468-4.890625-.367187-7.355468-.367187-2.46875 0-4.925782.136719-7.355469.375-1.074219.101563-2.109375.289063-3.167969.433594-1.320312.179687-2.644531.351562-3.941406.597656-1.296875.25-2.609375.582031-3.898438.90625-1 .246094-1.996094.476563-2.980468.765625-1.414063.410156-2.789063.855469-4.171876 1.367188-.851562.296874-1.65625.589843-2.472656.914062-1.433594.5625-2.84375 1.175781-4.269531 1.824219-.722656.332031-1.441406.683593-2.15625 1.042969-1.417969.714843-2.808594 1.46875-4.175781 2.261718-.65625.382813-1.304688.785156-1.945313 1.183594-1.371093.855469-2.730469 1.75-4.042969 2.6875-.589843.417969-1.152343.855469-1.707031 1.289062-1.332031 1.007813-2.636719 2.039063-3.890625 3.132813-.171875.144531-.359375.273437-.53125.417969-.167968.144531-.066406.121094-.117187.171875-16.515625 14.515625-25.984375 35.4375-25.984375 57.429687 0 21.988282 9.46875 42.910156 25.984375 57.425782.050781.054687.066406.121093.117187.171874.050782.050782.359375.273438.53125.417969 1.253906 1.09375 2.558594 2.125 3.890625 3.132813.570313.433594 1.132813.851562 1.707031 1.289062.253907.1875.496094.382813.75.5625-28.671874-8.664062-59.765624.21875-79.53125 22.722656-.042968.054688-.109374.070313-.152343.121094-.042969.050782-.273438.351563-.417969.519532-1.09375 1.265624-2.125 2.5625-3.132812 3.890624-.433594.574219-.851563 1.144532-1.289063 1.707032-.945313 1.324218-1.832031 2.671875-2.695313 4.054687-.402343.640625-.792968 1.28125-1.167968 1.929688-.804688 1.371093-1.554688 2.761719-2.269532 4.179687-.359374.71875-.710937 1.441406-1.042968 2.167969-.648438 1.390625-1.261719 2.796875-1.824219 4.265625-.324219.855469-.617187 1.648438-.914063 2.484375-.488281 1.375-.957031 2.757813-1.367187 4.164063-.289063.988281-.519531 1.980468-.765625 2.96875-.316406 1.304687-.648438 2.5625-.90625 3.910156-.253906 1.347656-.417969 2.617187-.597656 3.925781-.144532 1.054687-.332032 2.105469-.433594 3.179687-.238281 2.441407-.375 4.890626-.375 7.355469 0 2.46875.136719 4.917969.375 7.359375.101562 1.074219.289062 2.125.433594 3.179688.179687 1.308594.351562 2.621094.597656 3.925781.246094 1.308594.589844 2.5625.90625 3.910156.246094.988281.476562 1.980469.765625 2.96875.410156 1.40625.855469 2.789063 1.367187 4.164063.296876.855468.589844 1.707031.914063 2.492187.5625 1.425781 1.175781 2.832031 1.816406 4.265625.339844.726563.691407 1.453125 1.050781 2.167969.714844 1.417969 1.464844 2.808594 2.269532 4.183594.375.648437.765625 1.285156 1.167968 1.925781.851563 1.382812 1.707032 2.730469 2.695313 4.054688.417969.578124.855469 1.152343 1.289063 1.707031 1.007812 1.332031 2.039062 2.628906 3.132812 3.890625.144531.171875.273438.359375.417969.519531.144531.164063.117187.078125.171875.128906 4.722656 5.34375 10.164062 10.007813 16.167968 13.859375-.484374-.1875-.996093-.316406-1.492187-.496094-1.382813-.488281-2.765625-.957031-4.171875-1.367187-.992188-.289063-1.988281-.519531-2.980469-.765625-1.296875-.324219-2.558593-.648438-3.898437-.90625-1.339844-.253906-2.628906-.417969-3.941406-.597656-1.058594-.144532-2.101563-.332032-3.167969-.433594-2.40625-.28125-4.863281-.417969-7.328125-.417969-2.46875 0-4.925782.136719-7.355469.375-1.066406.101563-2.109375.289063-3.167969.433594-1.3125.179687-2.636718.351563-3.941406.597656-1.304688.25-2.558594.582031-3.898438.90625-.992187.246094-1.988281.476563-2.980468.765625-1.40625.410156-2.789063.855469-4.171875 1.367188-.851563.296875-1.65625.589844-2.472657.914062-1.433593.5625-2.84375 1.175782-4.269531 1.824219-.722656.332031-1.449219.683594-2.167969 1.042969-1.414062.714844-2.804687 1.46875-4.171874 2.261718-.65625.382813-1.296876.785157-1.945313 1.183594-1.375.855469-2.730469 1.707032-4.042969 2.6875-.582031.417969-1.152344.855469-1.707031 1.289063-1.332031 1.007812-2.628906 2.039062-3.890625 3.132812-.171875.144531-.359375.273438-.523438.417969-.160156.144531-.074218.121094-.125.171875-16.519531 14.515625-25.984374 35.441406-25.984374 57.429687 0 21.988282 9.464843 42.910157 25.984374 57.429688.050782.050781.066407.117188.125.167969.0625.050781.351563.273437.523438.417969 1.261719 1.09375 2.558594 2.125 3.890625 3.132812.570313.433594 1.140625.851562 1.707031 1.289062 1.320313.945313 2.667969 1.835938 4.050782 2.695313.640624.402344 1.28125.792969 1.929687 1.167969 1.375.804687 2.765625 1.554687 4.179687 2.273437.71875.355469 1.445313.707031 2.167969 1.046875 1.390625.640625 2.800781 1.253906 4.269531 1.820313.851563.324219 1.644532.613281 2.480469.910156 1.375.488281 2.757813.957031 4.164063 1.367187.980468.289063 1.980468.519532 2.96875.765626 1.300781.316406 2.5625.648437 3.910156.90625 1.347656.257812 2.621094.417968 3.925781.597656 1.058594.144531 2.105469.332031 3.183594.433594 2.4375.238281 4.886719.375 7.355469.375 2.464844 0 4.914062-.136719 7.355468-.375 1.074219-.101563 2.125-.289063 3.183594-.433594 1.304688-.179688 2.617188-.351563 3.925782-.597656 1.304687-.246094 2.609374-.589844 3.90625-.90625.988281-.246094 1.988281-.476563 2.96875-.765626 1.410156-.410156 2.792968-.855468 4.164062-1.367187.855469-.296875 1.707031-.585937 2.484375-.910156 1.433594-.566407 2.84375-1.179688 4.265625-1.828125.726562-.332032 1.453125-.683594 2.167969-1.039063 1.417969-.71875 2.808593-1.46875 4.183593-2.273437.648438-.375 1.285157-.765625 1.925782-1.167969 1.382812-.851563 2.730468-1.75 4.054687-2.695313.582031-.417968 1.152344-.855468 1.707031-1.289062 1.332032-1.007812 2.628907-2.039062 3.890626-3.132812.171874-.144532.359374-.273438.519531-.417969.164062-.144531.078125-.117188.128906-.167969 7.144531-6.328125 13.058594-13.921875 17.433594-22.402344.625 1.203125 1.28125 2.371094 1.960937 3.542969.378906.648437.769532 1.289063 1.171875 1.925781.851563 1.382813 1.707031 2.730469 2.695313 4.054688.417968.582031.855468 1.152344 1.289062 1.707031 1.007813 1.332031 2.039063 2.628906 3.132813 3.890625.144531.171875.273437.359375.417969.519531.144531.164063.117187.078125.167968.128907 14.519532 16.515624 35.441406 25.984374 57.429688 25.984374 21.988281 0 42.914062-9.46875 57.429687-25.984374.050781-.050782.121094-.066407.171875-.128907.050782-.058593.273438-.347656.417969-.519531 1.09375-1.261719 2.125-2.558594 3.132813-3.890625.433593-.570313.851562-1.144531 1.289062-1.707031.945312-1.3125 1.832031-2.671875 2.6875-4.042969.410156-.648437.800781-1.289063 1.183594-1.945313.675781-1.164062 1.332031-2.339843 1.957031-3.535156 4.378906 8.480469 10.296875 16.078125 17.449219 22.402344.050781.050781.066406.117188.128906.167969.058594.050781.347656.273437.519531.417969 1.261719 1.09375 2.558594 2.125 3.890625 3.132812.570313.433594 1.144532.851562 1.707032 1.289062 1.324218.945313 2.671874 1.835938 4.054687 2.695313.640625.402344 1.277344.792969 1.925781 1.167969 1.375.804687 2.765625 1.554687 4.183594 2.273437.714844.355469 1.441406.707031 2.167969 1.046875 1.390625.640625 2.796875 1.253906 4.265625 1.820313.851562.324219 1.648437.613281 2.484375.910156 1.371093.488281 2.753906.957031 4.164062 1.367187.980469.289063 1.980469.519532 2.96875.765626 1.296875.316406 2.558594.648437 3.90625.90625 1.351563.257812 2.621094.417968 3.925781.597656 1.058594.144531 2.109376.332031 3.183594.433594 2.441406.238281 4.890625.375 7.355469.375 2.46875 0 4.917969-.136719 7.355469-.375 1.078125-.101563 2.125-.289063 3.183594-.433594 1.304687-.179688 2.621093-.351563 3.925781-.597656 1.304687-.246094 2.609375-.589844 3.910156-.90625.988281-.246094 1.988281-.476563 2.96875-.765626 1.40625-.410156 2.789063-.855468 4.164063-1.367187.851562-.296875 1.707031-.585937 2.480468-.910156 1.433594-.566407 2.84375-1.179688 4.269532-1.828125.722656-.332032 1.449218-.683594 2.167968-1.039063 1.414063-.71875 2.804688-1.46875 4.179688-2.273437.648437-.375 1.289062-.765625 1.929687-1.167969 1.382813-.851563 2.730469-1.75 4.050781-2.695313.582032-.417968 1.152344-.855468 1.707032-1.289062 1.332031-1.007812 2.628906-2.039062 3.890625-3.132812.171875-.144532.359375-.273438.523437-.417969.160156-.144531.074219-.117188.125-.167969 16.519532-14.519531 25.984375-35.441406 25.984375-57.429688 0-21.988281-9.464843-42.914062-25.984375-57.429687zm-97.09375-3.722656c-1.332031 1.007812-2.628906 2.039062-3.890625 3.132812-.171875.144531-.359375.273438-.519531.417969-.164062.144531-.078125.121094-.128906.171875-7.15625 6.335937-13.074219 13.945313-17.449219 22.441406-.625-1.195312-1.28125-2.371093-1.957031-3.53125-.382813-.660156-.773438-1.296875-1.183594-1.945312-.855469-1.375-1.707031-2.730469-2.6875-4.046875-.417969-.578125-.855469-1.152344-1.289062-1.707032-1.007813-1.332031-2.039063-2.628906-3.132813-3.890624-.144531-.171876-.273437-.359376-.417969-.519532-.144531-.164062-.109375-.070312-.152344-.121094-4.742187-5.347656-10.195312-10.015624-16.214843-13.867187.496093.1875 1.007812.316406 1.5.496094 1.375.488281 2.757812.957031 4.167969 1.367187.980468.289063 1.976562.519532 2.96875.765625 1.296874.316407 2.558593.648438 3.90625.90625 1.347656.253907 2.621093.417969 3.925781.597657 1.058593.144531 2.109375.332031 3.183593.433593 2.441407.238281 4.890626.375 7.355469.375 2.464844 0 4.914063-.136719 7.355469-.375 1.074219-.101562 2.125-.289062 3.183594-.433593 1.304687-.179688 2.621094-.351563 3.925781-.597657 1.304687-.25 2.609375-.589843 3.90625-.90625.992187-.246093 1.988281-.476562 2.972656-.765625 1.40625-.410156 2.789063-.855468 4.164063-1.367187.5-.179688 1.015625-.308594 1.5-.496094-1.117188.71875-2.210938 1.460937-3.292969 2.238281-.554687.355469-1.128906.792969-1.699219 1.226563zm-31.027344 68.53125c-.078124.597656-.179687 1.1875-.273437 1.777343-.304687 2.011719-.71875 4.003907-1.238281 5.972657-.109375.425781-.203125.851562-.324219 1.269531-1.394531 4.867188-3.398437 9.535156-5.972656 13.894531l-.21875.339844c-11.355469-18.84375-11.355469-42.425781 0-61.269531l.21875.359375c2.574219 4.359375 4.578125 9.027343 5.972656 13.890625.121094.417968.214844.855468.324219 1.273437.519531 1.96875.933594 3.960938 1.238281 5.972657.09375.589843.195313 1.175781.273437 1.773437.671876 4.898437.671876 9.867187 0 14.765625zm-59.230468 35.285156c-4.710938 0-8.53125 3.820313-8.53125 8.535156v7.851563c-11.660156-1.683594-22.558594-6.789063-31.308594-14.679688 18.988281-26.535156 18.988281-62.210937 0-88.746094 8.75-7.886718 19.648438-12.996093 31.308594-14.675781v7.847657c0 4.714843 3.820312 8.535156 8.53125 8.535156 4.714844 0 8.535156-3.820313 8.535156-8.535156v-7.847657c11.660156 1.679688 22.558594 6.789063 31.308594 14.675781-18.992188 26.535157-18.992188 62.210938 0 88.746094-8.75 7.890625-19.648438 12.996094-31.308594 14.679688v-7.851563c0-4.714843-3.820312-8.535156-8.535156-8.535156zm-51.402344-12.398437c-2.570312-4.355469-4.578125-9.019532-5.972656-13.882813-.121094-.417969-.214844-.851563-.324219-1.273437-.519531-1.964844-.929687-3.960938-1.238281-5.972657-.09375-.585937-.199219-1.175781-.273438-1.773437-.671875-4.898438-.671875-9.863282 0-14.761719.074219-.597656.179688-1.1875.273438-1.777344.308594-2.011719.71875-4.003906 1.238281-5.972656.109375-.425781.203125-.851563.324219-1.269531 1.394531-4.867188 3.398437-9.535156 5.972656-13.894532l.203125-.324218c11.355469 18.84375 11.355469 42.425781 0 61.269531zm-34.3125-87.695313c-.050781-.050781-.070312-.121094-.128906-.171875s-.351563-.273438-.519532-.417969c-1.265624-1.09375-2.5625-2.125-3.890624-3.132812-.574219-.433594-1.144532-.851563-1.707032-1.289063-1.152344-.851562-2.332031-1.609375-3.535156-2.378906 17.53125 6.78125 36.964844 6.78125 54.496094 0-6.101563 3.882812-11.632813 8.597656-16.429688 14.011719 0 .050781-.109375.066406-.152344.121093-.042968.050782-.273437.347657-.417968.519532-1.09375 1.261718-2.125 2.558594-3.132813 3.890625-.433593.570312-.851562 1.144531-1.289062 1.707031-.945313 1.320312-1.832031 2.671875-2.695313 4.050781-.402344.640625-.792968 1.28125-1.167968 1.929688-.683594 1.167969-1.339844 2.339843-1.964844 3.542969-4.386719-8.476563-10.308594-16.066407-17.464844-22.382813zm-81.066406 6.039063c18.746094-10.8125 41.835937-10.8125 60.585937 0l.296875.1875c-18.921875 11.078124-42.347656 11.078124-61.269531 0zm47.152344-54.875c-2.570313-4.359376-4.578126-9.023438-5.972657-13.886719-.117187-.417969-.210937-.851563-.324219-1.269531-.515624-1.96875-.929687-3.960938-1.238281-5.972657-.09375-.589843-.195312-1.179687-.273437-1.777343-.667969-4.898438-.667969-9.863282 0-14.761719.078125-.597657.179687-1.1875.273437-1.773438.308594-2.011719.722657-4.007812 1.238281-5.972656.113282-.429687.207032-.855469.324219-1.273437 1.394531-4.863282 3.402344-9.53125 5.972657-13.890626l.164062-.324218c11.355469 18.84375 11.355469 42.421875 0 61.269531zm11.519531-74.640626c8.753906-7.890624 19.648437-13 31.3125-14.679687v7.851563c0 4.710937 3.820312 8.53125 8.53125 8.53125 4.714843 0 8.535156-3.820313 8.535156-8.53125v-7.851563c11.660156 1.679687 22.558594 6.789063 31.308594 14.679687-18.992188 26.53125-18.992188 62.210938 0 88.746094-8.75 7.886719-19.648438 12.996094-31.308594 14.675782v-7.851563c0-4.710937-3.820313-8.53125-8.535156-8.53125-4.710938 0-8.53125 3.820313-8.53125 8.53125v7.851563c-11.664063-1.679688-22.558594-6.789063-31.3125-14.675782 18.992187-26.535156 18.992187-62.214844 0-88.746094zm91.25 14.09375c2.570312 4.359376 4.578125 9.027344 5.972656 13.894532.117187.417968.210937.851562.324219 1.269531.515625 1.96875.929687 3.964844 1.238281 5.972656.09375.589844.195313 1.179688.273437 1.777344.667969 4.898437.667969 9.863281 0 14.761719-.078124.597656-.179687 1.1875-.273437 1.773437-.308594 2.011719-.722656 4.007813-1.238281 5.976563-.113282.425781-.207032.851562-.324219 1.269531-1.394531 4.867187-3.402344 9.535156-5.972656 13.894531l-.207031.324219c-11.355469-18.847656-11.355469-42.425781 0-61.269531zm34.3125 87.707032c.050781.050781.066406.121094.125.171875.0625.050781.351562.273437.523437.417969 1.261719 1.089843 2.558594 2.125 3.890625 3.128906.570313.4375 1.144531.855468 1.707031 1.289062 1.152344.855469 2.328126 1.613282 3.53125 2.382813-17.53125-6.78125-36.960937-6.78125-54.492187 0 6.097656-3.878907 11.621094-8.589844 16.410156-14.003907.050781-.050781.117188-.066406.167969-.128906.050781-.058594.273438-.347656.417969-.519531 1.09375-1.261719 2.125-2.558594 3.132812-3.890625.433594-.574219.851563-1.144531 1.289063-1.707031.945312-1.3125 1.835937-2.671875 2.6875-4.046875.410156-.648438.800781-1.285156 1.1875-1.945313.671875-1.160156 1.328125-2.335937 1.953125-3.53125 4.390625 8.476563 10.3125 16.066407 17.46875 22.382813zm81.066406-6.042969c-18.75 10.8125-41.839844 10.8125-60.585937 0l-.300782-.1875c18.921875-11.074219 42.347656-11.074219 61.269532 0zm7.679687 33.757813c18.746094-10.8125 41.835938-10.8125 60.585938 0l.382812.1875c-18.921874 11.078124-42.347656 11.078124-61.269531 0zm-68.265624-136.53125c18.746093-10.8125 41.835937-10.8125 60.585937 0l.382813.1875c-18.921876 11.078124-42.347657 11.078124-61.269532 0zm-14.039063 11.546874c26.535156 18.988282 62.210937 18.988282 88.746094 0 7.890625 8.75 12.996093 19.644532 14.679687 31.308594h-7.851562c-4.714844 0-8.535156 3.820313-8.535156 8.53125 0 4.714844 3.820312 8.535156 8.535156 8.535156h7.851562c-1.683594 11.660157-6.789062 22.558594-14.679687 31.308594-26.535157-18.992187-62.210938-18.992187-88.746094 0-7.886719-8.75-12.996094-19.648437-14.675781-31.308594h7.847656c4.714844 0 8.535156-3.820312 8.535156-8.535156 0-4.710937-3.820312-8.53125-8.535156-8.53125h-7.847656c1.679687-11.664062 6.789062-22.558594 14.675781-31.308594zm4.019531-45.304687c-18.75 10.8125-41.839844 10.8125-60.585937 0l-.34375-.1875c18.921875-11.078125 42.347656-11.078125 61.269531 0zm-60.585937-102.777344c18.746093-10.8125 41.835937-10.8125 60.585937 0l.339844.207031c-18.921875 11.074219-42.347656 11.074219-61.269531 0zm-28.765625 59.921875h7.847656c4.714844 0 8.535156-3.820312 8.535156-8.53125 0-4.714844-3.820312-8.535156-8.535156-8.535156h-7.847656c1.675781-11.660156 6.785156-22.558594 14.675781-31.308594 26.535156 18.988282 62.210937 18.988282 88.746094 0 7.886719 8.75 13 19.648438 14.6875 31.308594h-7.851563c-4.710937 0-8.535156 3.820312-8.535156 8.535156 0 4.710938 3.824219 8.53125 8.535156 8.53125h7.851563c-1.683594 11.660156-6.792969 22.554688-14.679688 31.308594-26.53125-18.988281-62.210937-18.988281-88.746093 0-7.894532-8.746094-13.003907-19.644531-14.683594-31.308594zm-44.800782 315.921875c-18.75 10.8125-41.839843 10.8125-60.585937 0l-.34375-.1875c18.921875-11.078125 42.347656-11.078125 61.269531 0zm14.078126-11.546875c-26.535157-18.988281-62.210938-18.988281-88.746094 0-7.886719-8.75-12.996094-19.648437-14.675782-31.308594h7.851563c4.710937 0 8.53125-3.820312 8.53125-8.53125 0-4.714843-3.820313-8.535156-8.53125-8.535156h-7.851563c1.679688-11.660156 6.789063-22.558594 14.675782-31.308594 26.535156 18.988282 62.210937 18.988282 88.746094 0 7.890624 8.75 13 19.648438 14.679687 31.308594h-7.851563c-4.714843 0-8.535156 3.820313-8.535156 8.535156 0 4.710938 3.820313 8.53125 8.535156 8.53125h7.851563c-1.679687 11.660157-6.789063 22.558594-14.679687 31.308594zm258.988281 11.546875c-18.75 10.8125-41.839844 10.8125-60.585938 0l-.34375-.1875c18.921875-11.078125 42.347657-11.078125 61.269531 0zm14.078125-11.546875c-26.53125-18.988281-62.210938-18.988281-88.746094 0-7.886719-8.75-12.996094-19.648437-14.675781-31.308594h7.851562c4.710938 0 8.53125-3.820312 8.53125-8.53125 0-4.714843-3.820312-8.535156-8.53125-8.535156h-7.851562c1.679687-11.660156 6.789062-22.558594 14.675781-31.308594 26.535156 18.988282 62.214844 18.988282 88.746094 0 7.890625 8.75 13 19.648438 14.679687 31.308594h-7.851562c-4.710938 0-8.53125 3.820313-8.53125 8.535156 0 4.710938 3.820312 8.53125 8.53125 8.53125h7.851562c-1.679687 11.660157-6.789062 22.558594-14.679687 31.308594zm0 0"/></svg>